<?xml version="1.0" standalone="no"?><!DOCTYPE svg PUBLIC "-//W3C//DTD SVG 1.1//EN" "http://www.w3.org/Graphics/SVG/1.1/DTD/svg11.dtd"><svg t="1676345643777" class="icon" viewBox="0 0 1024 1024" version="1.1" xmlns="http://www.w3.org/2000/svg" p-id="4774" xmlns:xlink="http://www.w3.org/1999/xlink" width="16" height="16"><path d="M512 85.333333a42.666667 42.666667 0 0 1 35.114667 18.432l107.605333 155.946667A42.666667 42.666667 0 0 1 584.533333 308.181333L512 203.093333 404.736 358.570667a42.666667 42.666667 0 0 1-23.125333 16.725333L200.064 428.373333l115.285333 148.736a42.666667 42.666667 0 0 1 8.917334 27.306667l-5.205334 187.946667 178.730667-63.146667a42.666667 42.666667 0 0 1 28.416 0l178.773333 63.146667-5.248-187.946667a42.666667 42.666667 0 0 1 8.96-27.306667l115.2-148.736-93.44-27.392a42.666667 42.666667 0 1 1 23.936-81.92l153.6 45.013334a42.666667 42.666667 0 0 1 21.76 67.072L785.493333 617.386667l6.485334 234.752a42.666667 42.666667 0 0 1-56.874667 41.386666L512 814.805333l-223.146667 78.805334a42.666667 42.666667 0 0 1-56.832-41.386667l6.485334-234.794667-144.213334-186.197333a42.666667 42.666667 0 0 1 21.76-67.072L343.04 297.642667l133.802667-193.877334A42.666667 42.666667 0 0 1 512 85.333333z" fill="#75C82B" p-id="4775"></path></svg>